
<svg width="44" height="42" viewBox="0 0 44 42" fill="none" xmlns="http://www.w3.org/2000/svg">
<rect x="0.363647" y="0.53833" width="43.2727" height="41.2727" rx="20.6364" fill="black" fill-opacity="0.8"/>
<path d="M22 7.53833C14.5 7.53833 8.36365 12.9626 8.36365 19.6595C8.39807 21.2696 8.75205 22.8514 9.40028 24.292C10.0485 25.7325 10.975 26.9962 12.1136 27.9929C12.1136 28.902 11.5409 31.2808 8.36365 34.8111C11.5955 34.6444 14.6909 33.2959 17.1864 31.0232C18.7409 31.5232 20.3773 31.7808 22 31.7808C29.5 31.7808 35.6364 26.3565 35.6364 19.6595C35.6364 12.9626 29.5 7.53833 22 7.53833ZM22 28.7505C15.9727 28.7505 11.0909 24.6747 11.0909 19.6595C11.0909 14.6444 15.9727 10.5686 22 10.5686C28.0273 10.5686 32.9091 14.6444 32.9091 19.6595C32.9091 24.6747 28.0273 28.7505 22 28.7505Z" fill="white"/>
</svg>
