
<svg width="45" height="44" viewBox="0 0 45 44" fill="none" xmlns="http://www.w3.org/2000/svg">
<rect x="0.565552" y="0.621338" width="43.8182" height="43.2726" rx="21.6363" fill="black" fill-opacity="0.8"/>
<path d="M17.0201 22.2576L21.111 26.3485L27.9292 16.8031M11.5656 21.2376C11.5656 31.7199 20.9992 35.4017 22.3206 35.8667C22.4233 35.9031 22.526 35.9031 22.6287 35.8667C23.9528 35.4167 33.3837 31.8276 33.3837 21.239V11.7631C33.384 11.6412 33.3435 11.5228 33.2686 11.4266C33.1937 11.3305 33.0888 11.2622 32.9706 11.2326L22.6069 8.63762C22.5201 8.61591 22.4292 8.61591 22.3424 8.63762L11.9787 11.2326C11.8605 11.2622 11.7556 11.3305 11.6807 11.4266C11.6058 11.5228 11.5653 11.6412 11.5656 11.7631V21.2376Z" stroke="#FFFCFC" stroke-width="2.04545" stroke-linecap="round" stroke-linejoin="round"/>
</svg>
