
<svg width="44" height="44" viewBox="0 0 44 44" fill="none" xmlns="http://www.w3.org/2000/svg">
<rect x="0.367004" y="0.621338" width="43.2659" height="43.2727" rx="21.633" fill="black" fill-opacity="0.8"/>
<path d="M30.1852 14.0759C30.1211 11.9582 29.8852 10.6941 29.0097 9.81997C27.8097 8.62134 25.8788 8.62134 22.017 8.62134H16.5584C12.6965 8.62134 10.7656 8.62134 9.567 9.81997C8.367 11.0172 8.367 12.9468 8.367 16.8032V27.7122C8.367 31.5686 8.367 33.4982 9.567 34.6954C10.767 35.8927 12.6965 35.8941 16.5584 35.8941H22.0184C25.8788 35.8941 27.8097 35.8941 29.0097 34.6954C29.8852 33.8213 30.1211 32.5586 30.1852 30.4395" stroke="white" stroke-width="2.04545" stroke-linecap="round" stroke-linejoin="round"/>
<path d="M33.237 21.9064L34.842 20.3014C35.2102 19.9332 35.3956 19.7478 35.4938 19.5487C35.5853 19.3619 35.6329 19.1567 35.6329 18.9487C35.6329 18.7407 35.5853 18.5355 35.4938 18.3487C35.3956 18.1496 35.2102 17.9641 34.842 17.596C34.4738 17.2278 34.2884 17.0423 34.0893 16.9441C33.9025 16.8526 33.6973 16.805 33.4893 16.805C33.2813 16.805 33.076 16.8526 32.8893 16.9441C32.6902 17.0423 32.5061 17.2278 32.1365 17.596L30.5315 19.201M33.237 21.9064L26.0561 29.0873L21.9979 30.4401L23.3506 26.3819L30.5315 19.201M33.237 21.9064L30.5315 19.201M12.4525 31.8037H13.8161L15.5206 28.3946L17.2252 31.8037H18.5888M13.8161 14.0764H24.7252M13.8161 19.531H21.9979" stroke="white" stroke-width="2.04545" stroke-linecap="round" stroke-linejoin="round"/>
</svg>
