
<svg width="46" height="46" viewBox="0 0 46 46" fill="none" xmlns="http://www.w3.org/2000/svg">
<rect x="0.0253296" y="0.621338" width="45" height="45" rx="22.5" fill="black" fill-opacity="0.8"/>
<path d="M23.2078 14.2625V37.4443M23.2078 37.4443H19.1169M23.2078 37.4443H27.2987M35.4805 25.1715L32.0714 18.3534L28.6623 25.1715M17.7532 25.1715L14.3441 18.3534L10.9351 25.1715" stroke="white" stroke-width="2.04545" stroke-linecap="round" stroke-linejoin="round"/>
<path d="M12.3001 18.3534H13.7292C15.4528 18.3534 17.1246 17.632 18.4692 16.3079C21.2401 13.5806 25.1783 13.5806 27.9492 16.3079C29.2937 17.632 30.9655 18.3534 32.6892 18.3534H34.1183M32.0728 30.6261C33.9205 30.6261 35.5283 29.4888 36.3642 27.8102C36.8155 26.9034 37.0405 26.4506 36.6301 25.8111C36.2183 25.1715 35.5364 25.1715 34.1728 25.1715H29.9701C28.6078 25.1715 27.926 25.1715 27.5155 25.8111C27.1037 26.4506 27.3287 26.9034 27.7801 27.8102C28.6174 29.4888 30.2251 30.6261 32.0728 30.6261ZM14.3455 30.6261C16.1933 30.6261 17.801 29.4888 18.6369 27.8102C19.0883 26.9034 19.3133 26.4506 18.9028 25.8111C18.491 25.1715 17.8092 25.1715 16.4455 25.1715H12.2442C10.8819 25.1715 10.2001 25.1715 9.78963 25.8111C9.37781 26.4506 9.60281 26.9034 10.0542 27.8102C10.8901 29.4888 12.4978 30.6261 14.3455 30.6261Z" stroke="white" stroke-width="2.04545" stroke-linecap="round" stroke-linejoin="round"/>
<path d="M24.574 12.2146C24.574 12.7571 24.3585 13.2774 23.9749 13.661C23.5913 14.0446 23.0711 14.2601 22.5286 14.2601C21.9861 14.2601 21.4658 14.0446 21.0822 13.661C20.6986 13.2774 20.4831 12.7571 20.4831 12.2146C20.4831 11.6722 20.6986 11.1519 21.0822 10.7683C21.4658 10.3847 21.9861 10.1692 22.5286 10.1692C23.0711 10.1692 23.5913 10.3847 23.9749 10.7683C24.3585 11.1519 24.574 11.6722 24.574 12.2146Z" stroke="white" stroke-width="2.04545" stroke-linecap="round" stroke-linejoin="round"/>
</svg>
