
<svg width="45" height="46" viewBox="0 0 45 46" fill="none" xmlns="http://www.w3.org/2000/svg">
<rect x="0.393951" y="0.53833" width="44.5455" height="44.5455" rx="22.2727" fill="black" fill-opacity="0.8"/>
<path d="M34.9394 15.9929C34.9394 19.0065 29.444 21.4474 22.6667 21.4474C15.8894 21.4474 10.394 19.0065 10.394 15.9929M34.9394 15.9929C34.9394 12.9792 29.444 10.5383 22.6667 10.5383C15.8894 10.5383 10.394 12.9792 10.394 15.9929M34.9394 15.9929V22.8111M10.394 15.9929V22.8111M34.9394 22.8111C34.9394 25.8247 29.444 28.2656 22.6667 28.2656C15.8894 28.2656 10.394 25.8247 10.394 22.8111M34.9394 22.8111V29.6292C34.9394 32.6429 29.444 35.0838 22.6667 35.0838C15.8894 35.0838 10.394 32.6429 10.394 29.6292V22.8111" stroke="white" stroke-width="2.72727" stroke-linecap="round" stroke-linejoin="round"/>
</svg>
