
<svg width="47" height="44" viewBox="0 0 47 44" fill="none" xmlns="http://www.w3.org/2000/svg">
<rect x="0.378906" y="0.53833" width="45.9091" height="43.2727" rx="21.6364" fill="black" fill-opacity="0.8"/>
<path d="M21.288 8.53833L31.2398 11.6474C31.5174 11.7341 31.76 11.9072 31.9322 12.1415C32.1044 12.3757 32.1972 12.6589 32.1971 12.9497V15.3565H34.9244C35.286 15.3565 35.6329 15.5002 35.8886 15.7559C36.1443 16.0116 36.288 16.3585 36.288 16.7201V19.4474H18.5607V16.7201C18.5607 16.3585 18.7044 16.0116 18.9601 15.7559C19.2159 15.5002 19.5627 15.3565 19.9244 15.3565H29.4698V13.952L21.288 11.3938L13.1062 13.952V24.0483C13.106 24.8832 13.2974 25.7069 13.6658 26.4562C14.0341 27.2054 14.5695 27.86 15.2307 28.3697L15.4885 28.5551L21.288 32.5097L26.4453 28.9929H19.9244C19.5627 28.9929 19.2159 28.8492 18.9601 28.5935C18.7044 28.3377 18.5607 27.9909 18.5607 27.6292V22.1747H36.288V27.6292C36.288 27.9909 36.1443 28.3377 35.8886 28.5935C35.6329 28.8492 35.286 28.9929 34.9244 28.9929L30.5335 28.9942C30.0057 29.6897 29.3648 30.3033 28.6244 30.8079L21.288 35.8111L13.9516 30.8092C12.8505 30.0585 11.9495 29.0501 11.3268 27.8719C10.7042 26.6936 10.3788 25.381 10.3789 24.0483V12.9497C10.3791 12.6592 10.472 12.3763 10.6442 12.1423C10.8164 11.9083 11.0588 11.7354 11.3362 11.6488L21.288 8.53833Z" fill="white"/>
</svg>
