
<svg width="620" height="571" viewBox="0 0 620 571" fill="none" xmlns="http://www.w3.org/2000/svg">
<g style="mix-blend-mode:hard-light">
<path d="M537.799 259.362C532.08 234.669 522.452 211.447 509.588 190.391C511.987 188.854 514.264 187.138 516.392 185.26C530.319 207.87 540.371 232.545 546.204 258.447C543.34 258.54 540.534 258.848 537.799 259.358L537.799 259.362Z" fill="#686868"/>
</g>
<g style="mix-blend-mode:hard-light">
<path d="M365.962 76.0586C391.988 82.2466 416.715 92.6925 439.29 107.047C437.381 109.146 435.63 111.397 434.062 113.777C412.938 100.458 389.548 90.4114 364.596 84.3642C365.256 81.6704 365.716 78.8928 365.962 76.0586Z" fill="#686868"/>
</g>
<g style="mix-blend-mode:hard-light">
<path d="M184.156 104.111C206.497 90.6165 230.813 80.8826 256.311 75.2287C256.514 78.0662 256.932 80.8504 257.552 83.5538C233.116 89.0877 210.106 98.4472 189.195 110.979C187.69 108.557 186.006 106.262 184.156 104.111Z" fill="#686868"/>
</g>
<g style="mix-blend-mode:hard-light">
<path d="M73.3719 254.683C79.7545 228.315 90.5182 203.298 105.29 180.515C107.385 182.434 109.626 184.189 111.998 185.767C98.3258 207.02 87.9936 230.619 81.7432 255.826C79.0214 255.238 76.2295 254.851 73.3719 254.678L73.3719 254.683Z" fill="#686868"/>
</g>
<g style="mix-blend-mode:color-dodge" opacity="0.5">
<path d="M305.853 570.618L305.891 568.116C306.398 568.12 306.911 568.128 307.418 568.132L308.379 568.139L308.364 570.637L307.399 570.63C306.887 570.626 306.37 570.622 305.853 570.618ZM311.691 568.132C312.523 568.125 313.351 568.113 314.179 568.096L314.224 570.594C313.387 570.611 312.555 570.623 311.713 570.63L311.691 568.128L311.691 568.132ZM300.004 570.478L300.096 567.981C300.919 568.01 301.747 568.035 302.575 568.055L302.51 570.556C301.673 570.536 300.836 570.507 300.004 570.478ZM317.496 568.016C318.324 567.99 319.157 567.96 319.98 567.925L320.081 570.423C319.243 570.458 318.411 570.488 317.573 570.514L317.496 568.016ZM294.16 570.201L294.307 567.704C295.135 567.752 295.962 567.794 296.79 567.837L296.671 570.334C295.834 570.296 294.997 570.248 294.16 570.201ZM323.293 567.771C324.122 567.727 324.95 567.679 325.778 567.625L325.938 570.119C325.105 570.173 324.267 570.221 323.43 570.265L323.293 567.771ZM288.318 569.795L288.519 567.304C289.347 567.37 290.17 567.431 291.002 567.492L290.827 569.988C289.991 569.931 289.159 569.866 288.322 569.8L288.318 569.795ZM329.087 567.394C329.915 567.332 330.739 567.265 331.568 567.193L331.782 569.683C330.949 569.755 330.116 569.822 329.279 569.889L329.087 567.394ZM282.481 569.262L282.737 566.776C283.56 566.859 284.387 566.943 285.214 567.018L284.981 569.505C284.149 569.425 283.312 569.346 282.481 569.257L282.481 569.262ZM334.868 566.889C335.692 566.808 336.52 566.723 337.34 566.633L337.614 569.119C336.781 569.208 335.952 569.294 335.115 569.379L334.868 566.893L334.868 566.889ZM276.658 568.592L276.969 566.11C277.792 566.212 278.615 566.315 279.442 566.408L279.153 568.889C278.322 568.792 277.49 568.689 276.663 568.587L276.658 568.592ZM340.636 566.251C341.46 566.152 342.285 566.043 343.104 565.94L343.428 568.417C342.6 568.525 341.771 568.633 340.938 568.732L340.636 566.251ZM270.85 567.793L271.221 565.321C272.039 565.442 272.861 565.562 273.684 565.678L273.336 568.155C272.509 568.039 271.677 567.918 270.85 567.798L270.85 567.793ZM346.387 565.484C347.207 565.362 348.031 565.24 348.846 565.114L349.23 567.582C348.401 567.709 347.577 567.835 346.748 567.952L346.387 565.48L346.387 565.484ZM265.066 566.862L265.492 564.4C266.31 564.543 267.128 564.678 267.945 564.812L267.542 567.279C266.716 567.144 265.889 567.006 265.066 566.862ZM352.121 564.585C352.941 564.445 353.756 564.305 354.571 564.16L355.01 566.619C354.186 566.764 353.361 566.909 352.537 567.049L352.121 564.585ZM259.302 565.799L259.782 563.346C260.595 563.508 261.408 563.66 262.226 563.813L261.768 566.27C260.946 566.118 260.124 565.96 259.302 565.799ZM357.832 563.558C358.648 563.399 359.463 563.241 360.274 563.077L360.768 565.528C359.948 565.696 359.128 565.855 358.303 566.013L357.832 563.558ZM253.566 564.603L254.101 562.16C254.909 562.34 255.722 562.51 256.535 562.681L256.023 565.129C255.201 564.958 254.383 564.778 253.566 564.603ZM363.518 562.397C364.329 562.221 365.14 562.044 365.946 561.862L366.499 564.3C365.684 564.486 364.864 564.663 364.048 564.839L363.522 562.397L363.518 562.397ZM247.858 563.279L248.453 560.85C249.256 561.048 250.064 561.237 250.873 561.427L250.301 563.86C249.483 563.671 248.671 563.473 247.858 563.279ZM369.177 561.109C369.983 560.914 370.79 560.719 371.592 560.519L372.2 562.943C371.389 563.147 370.573 563.347 369.757 563.542L369.177 561.109ZM242.179 561.823L242.828 559.408C243.627 559.625 244.43 559.832 245.234 560.039L244.612 562.459C243.799 562.252 242.991 562.04 242.183 561.819L242.179 561.823ZM374.804 559.692C375.606 559.479 376.408 559.265 377.206 559.047L377.869 561.458C377.063 561.681 376.256 561.899 375.445 562.112L374.804 559.697L374.804 559.692ZM236.537 560.244L237.236 557.843C238.031 558.073 238.829 558.303 239.628 558.529L238.951 560.934C238.143 560.709 237.34 560.474 236.537 560.239L236.537 560.244ZM380.401 558.147C381.199 557.92 381.992 557.683 382.785 557.447L383.503 559.84C382.701 560.081 381.899 560.317 381.092 560.549L380.401 558.147ZM230.933 558.527L231.692 556.145C232.481 556.398 233.27 556.642 234.065 556.886L233.333 559.277C232.53 559.033 231.731 558.78 230.933 558.527ZM385.971 556.474C386.764 556.223 387.558 555.973 388.351 555.714L389.12 558.094C388.322 558.353 387.519 558.608 386.717 558.858L385.971 556.474ZM225.371 556.688L226.184 554.325C226.969 554.591 227.754 554.858 228.539 555.12L227.748 557.493C226.954 557.23 226.16 556.959 225.371 556.688ZM391.51 554.663C392.299 554.394 393.083 554.126 393.872 553.848L394.701 556.21C393.907 556.488 393.114 556.761 392.316 557.029L391.515 554.663L391.51 554.663ZM219.846 554.721L220.71 552.376C221.485 552.661 222.265 552.946 223.045 553.226L222.204 555.58C221.415 555.3 220.626 555.01 219.841 554.721L219.846 554.721ZM397.005 552.733C397.784 552.446 398.569 552.159 399.344 551.867L400.223 554.207C399.434 554.503 398.65 554.794 397.856 555.081L397 552.733L397.005 552.733ZM214.373 552.63L215.291 550.304C216.062 550.607 216.833 550.911 217.608 551.205L216.712 553.54C215.928 553.241 215.148 552.933 214.373 552.626L214.373 552.63ZM402.454 550.674C403.23 550.373 404 550.064 404.771 549.754L405.705 552.071C404.925 552.385 404.145 552.695 403.361 553L402.45 550.669L402.454 550.674ZM208.946 550.412L209.92 548.109C210.681 548.431 211.447 548.752 212.218 549.064L211.267 551.376C210.492 551.06 209.721 550.738 208.946 550.412ZM407.855 548.492C408.621 548.173 409.387 547.849 410.154 547.521L411.138 549.82C410.367 550.153 409.592 550.476 408.816 550.8L407.855 548.492ZM203.598 548.08L204.622 545.801C205.374 546.14 206.131 546.471 206.888 546.806L205.882 549.095C205.121 548.759 204.36 548.424 203.598 548.08ZM413.196 546.185C413.958 545.848 414.715 545.506 415.468 545.159L416.508 547.431C415.746 547.783 414.979 548.124 414.208 548.466L413.192 546.181L413.196 546.185ZM198.297 545.63L199.375 543.374C200.123 543.727 200.87 544.08 201.618 544.429L200.562 546.694C199.806 546.341 199.054 545.988 198.297 545.63ZM418.489 543.76C419.241 543.404 419.99 543.044 420.738 542.683L421.828 544.933C421.075 545.298 420.318 545.662 419.556 546.018L418.489 543.755L418.489 543.76ZM193.056 543.056L194.184 540.823C194.923 541.195 195.661 541.562 196.404 541.929L195.298 544.171C194.551 543.804 193.803 543.432 193.056 543.052L193.056 543.056ZM423.718 541.215C424.461 540.845 425.201 540.466 425.94 540.088L427.081 542.315C426.332 542.698 425.584 543.077 424.835 543.451L423.718 541.215ZM187.875 540.369L189.049 538.164C189.778 538.553 190.512 538.939 191.245 539.319L190.09 541.534C189.347 541.148 188.609 540.759 187.875 540.369ZM428.893 538.555C429.628 538.167 430.358 537.774 431.088 537.377L432.279 539.577C431.54 539.979 430.8 540.376 430.061 540.768L428.893 538.559L428.893 538.555ZM182.751 537.558L183.979 535.381C184.699 535.784 185.423 536.188 186.147 536.587L184.942 538.778C184.213 538.374 183.479 537.971 182.751 537.558ZM434 535.775C434.726 535.369 435.447 534.963 436.168 534.548L437.41 536.716C436.68 537.131 435.949 537.547 435.219 537.953L434 535.771L434 535.775ZM177.691 534.634L178.965 532.484C179.675 532.906 180.39 533.323 181.105 533.74L179.849 535.904C179.125 535.482 178.406 535.06 177.691 534.634ZM439.044 532.881C439.761 532.461 440.473 532.037 441.186 531.608L442.478 533.749C441.761 534.183 441.039 534.612 440.313 535.036L439.044 532.881ZM172.696 531.596L174.02 529.474C174.721 529.909 175.427 530.345 176.132 530.78L174.831 532.911C174.121 532.475 173.411 532.036 172.7 531.596L172.696 531.596ZM444.016 529.872C444.724 529.434 445.427 528.996 446.126 528.548L447.464 530.658C446.756 531.105 446.044 531.553 445.331 531.996L444.016 529.872ZM167.77 528.444L169.14 526.354C169.832 526.808 170.524 527.257 171.22 527.706L169.869 529.809C169.168 529.36 168.467 528.902 167.766 528.444L167.77 528.444ZM448.92 526.753C449.614 526.301 450.309 525.844 450.998 525.383L452.387 527.465C451.688 527.931 450.989 528.393 450.286 528.849L448.92 526.753ZM162.919 525.178L164.338 523.121C165.021 523.588 165.704 524.055 166.391 524.518L164.994 526.589C164.302 526.121 163.61 525.65 162.923 525.178L162.919 525.178ZM453.752 523.528C454.437 523.057 455.122 522.587 455.798 522.112L457.233 524.163C456.548 524.642 455.858 525.122 455.164 525.592L453.752 523.528ZM158.141 521.807L159.606 519.778C160.275 520.264 160.953 520.744 161.626 521.225L160.179 523.263C159.497 522.783 158.819 522.297 158.141 521.807ZM458.507 520.188C459.178 519.704 459.85 519.219 460.521 518.726L462.002 520.74C461.326 521.238 460.65 521.727 459.969 522.216L458.511 520.184L458.507 520.188ZM153.438 518.323L154.948 516.331C155.608 516.83 156.272 517.329 156.936 517.819L155.448 519.825C154.78 519.326 154.111 518.827 153.442 518.318L153.438 518.323ZM463.185 516.747C463.847 516.249 464.51 515.741 465.168 515.239L466.689 517.222C466.027 517.733 465.36 518.241 464.688 518.743L463.185 516.747ZM148.813 514.739L150.369 512.779C151.015 513.296 151.665 513.804 152.32 514.317L150.786 516.29C150.127 515.778 149.467 515.26 148.813 514.739ZM467.786 513.2C468.434 512.683 469.083 512.167 469.732 511.646L471.3 513.592C470.647 514.118 469.993 514.639 469.335 515.16L467.786 513.2ZM144.271 511.045L145.868 509.122C146.504 509.653 147.145 510.179 147.786 510.701L146.208 512.638C145.557 512.111 144.912 511.576 144.271 511.041L144.271 511.045ZM472.3 509.547C472.94 509.017 473.575 508.486 474.211 507.951L475.82 509.862C475.18 510.401 474.536 510.936 473.891 511.471L472.296 509.547L472.3 509.547ZM139.812 507.252L141.455 505.366C142.077 505.91 142.705 506.45 143.336 506.99L141.712 508.89C141.076 508.345 140.439 507.801 139.812 507.252ZM476.733 505.798C477.36 505.253 477.986 504.709 478.607 504.16L480.263 506.035C479.637 506.588 479.006 507.141 478.37 507.69L476.733 505.798ZM135.437 503.358L137.12 501.509C137.733 502.067 138.347 502.621 138.965 503.174L137.299 505.037C136.677 504.479 136.054 503.921 135.437 503.358ZM481.08 501.951C481.693 501.393 482.306 500.835 482.918 500.273L484.615 502.111C483.998 502.678 483.381 503.245 482.763 503.808L481.085 501.956L481.08 501.951ZM131.153 499.369L132.878 497.557C133.477 498.129 134.081 498.696 134.685 499.263L132.979 501.089C132.366 500.517 131.757 499.946 131.153 499.365L131.153 499.369ZM485.337 498.004C485.94 497.432 486.539 496.86 487.133 496.284L488.872 498.081C488.268 498.662 487.665 499.238 487.056 499.819L485.337 498.004ZM126.957 495.28L128.723 493.51C129.308 494.095 129.899 494.676 130.493 495.257L128.746 497.046C128.147 496.46 127.552 495.875 126.962 495.285L126.957 495.28ZM489.502 493.969C490.092 493.388 490.677 492.802 491.258 492.212L493.038 493.968C492.448 494.563 491.858 495.153 491.263 495.743L489.502 493.969ZM122.854 491.096L124.655 489.367C125.232 489.966 125.808 490.56 126.385 491.155L124.597 492.902C124.011 492.303 123.43 491.704 122.849 491.101L122.854 491.096ZM493.577 489.837C494.153 489.242 494.725 488.643 495.296 488.039L497.113 489.758C496.537 490.367 495.96 490.971 495.379 491.575L493.581 489.842L493.577 489.837ZM118.847 486.821L120.689 485.133C121.247 485.746 121.815 486.354 122.377 486.957L120.553 488.664C119.981 488.051 119.414 487.438 118.847 486.821ZM497.556 485.613C498.119 485.004 498.677 484.391 499.23 483.778L501.084 485.452C500.521 486.074 499.958 486.692 499.391 487.306L497.551 485.608L497.556 485.613ZM114.937 482.46L116.816 480.814C117.364 481.435 117.913 482.057 118.462 482.679L116.597 484.343C116.039 483.722 115.486 483.091 114.932 482.465L114.937 482.46ZM501.435 481.306C501.984 480.683 502.529 480.061 503.069 479.434L504.959 481.067C504.41 481.699 503.861 482.33 503.312 482.958L501.435 481.306ZM111.123 478.008L113.038 476.403C113.569 477.038 114.108 477.674 114.643 478.304L112.742 479.928C112.198 479.292 111.658 478.653 111.119 478.008L111.123 478.008ZM505.219 476.916C505.754 476.284 506.281 475.647 506.811 475.007L508.739 476.599C508.208 477.245 507.673 477.886 507.133 478.526L505.219 476.916ZM107.411 473.47L109.363 471.907C109.879 472.556 110.4 473.2 110.926 473.844L108.988 475.421C108.458 474.772 107.932 474.119 107.411 473.465L107.411 473.47ZM508.903 472.438C509.42 471.792 509.937 471.142 510.45 470.492L512.414 472.039C511.897 472.694 511.375 473.348 510.853 473.999L508.903 472.433L508.903 472.438ZM103.801 468.846L105.788 467.328C106.291 467.986 106.798 468.644 107.31 469.302L105.336 470.838C104.82 470.175 104.312 469.513 103.801 468.846ZM512.482 467.877C512.986 467.217 513.489 466.558 513.984 465.898L515.98 467.405C515.477 468.073 514.973 468.737 514.465 469.401L512.482 467.881L512.482 467.877ZM100.296 464.145L102.315 462.673C102.804 463.345 103.293 464.012 103.791 464.679L101.785 466.173C101.287 465.502 100.789 464.825 100.296 464.145ZM515.957 463.242C516.447 462.573 516.932 461.904 517.413 461.231L519.447 462.687C518.961 463.365 518.471 464.043 517.977 464.716L515.961 463.237L515.957 463.242ZM96.9009 459.362L98.9562 457.937C99.4314 458.617 99.9066 459.298 100.386 459.974L98.3445 461.418C97.8602 460.732 97.3806 460.047 96.9009 459.357L96.9009 459.362ZM519.327 458.528C519.799 457.85 520.27 457.168 520.737 456.485L522.803 457.896C522.332 458.588 521.855 459.275 521.379 459.957L519.331 458.524L519.327 458.528ZM93.612 454.502L95.6991 453.123C96.1558 453.817 96.6172 454.507 97.0831 455.196L95.0097 456.594C94.5392 455.9 94.0778 455.206 93.612 454.502ZM522.588 453.741C523.046 453.054 523.499 452.362 523.953 451.665L526.047 453.031C525.593 453.732 525.13 454.428 524.668 455.124L522.588 453.741ZM90.4334 449.57L92.5476 448.241C92.9906 448.945 93.4336 449.643 93.8857 450.342L91.7806 451.694C91.3285 450.986 90.8764 450.283 90.4334 449.57ZM525.739 448.884C526.184 448.188 526.619 447.486 527.054 446.781L529.18 448.096C528.741 448.806 528.296 449.512 527.852 450.222L525.739 448.884ZM87.3653 444.566L89.511 443.283C89.9356 443.995 90.3648 444.708 90.7986 445.42L88.6664 446.721C88.2281 446.004 87.7944 445.287 87.3653 444.566ZM528.777 443.953C529.203 443.243 529.625 442.532 530.046 441.822L532.2 443.091C531.779 443.811 531.352 444.526 530.922 445.245L528.777 443.958L528.777 443.953ZM84.4119 439.494L86.5848 438.262C86.9956 438.983 87.4064 439.704 87.8264 440.425L85.6625 441.681C85.2426 440.955 84.8226 440.229 84.4119 439.498L84.4119 439.494ZM531.705 438.962C532.113 438.247 532.521 437.522 532.925 436.803L535.106 438.022C534.698 438.751 534.29 439.48 533.873 440.204L531.701 438.962L531.705 438.962ZM81.5734 434.35L83.778 433.168C84.1704 433.898 84.5675 434.628 84.9691 435.359L82.7781 436.563C82.372 435.828 81.975 435.089 81.5734 434.354L81.5734 434.35ZM534.515 433.906C534.91 433.177 535.299 432.452 535.685 431.719L537.894 432.888C537.504 433.626 537.11 434.36 536.711 435.093L534.511 433.901L534.515 433.906ZM78.8544 429.147L81.0814 428.015C81.46 428.754 81.8387 429.494 82.2219 430.233L80.0039 431.387C79.6161 430.643 79.233 429.895 78.8544 429.147ZM537.212 428.785C537.588 428.051 537.964 427.313 538.33 426.574L540.568 427.694C540.196 428.441 539.816 429.184 539.44 429.927L537.216 428.785L537.212 428.785ZM76.2547 423.88L78.5087 422.8C78.869 423.548 79.2294 424.296 79.5988 425.04L77.3538 426.144C76.9843 425.391 76.615 424.638 76.2547 423.88ZM539.789 423.608C540.147 422.865 540.505 422.122 540.858 421.374L543.119 422.439C542.761 423.195 542.403 423.948 542.041 424.695L539.789 423.608ZM73.7699 418.551L76.0464 417.521C76.3883 418.278 76.7349 419.035 77.086 419.788L74.8184 420.841C74.4673 420.08 74.1163 419.318 73.7699 418.551ZM542.253 418.38C542.597 417.628 542.936 416.875 543.271 416.123L545.555 417.137C545.216 417.899 544.872 418.66 544.527 419.417L542.253 418.38ZM71.4135 413.168L73.7125 412.188C74.0361 412.954 74.3688 413.716 74.7016 414.482L72.407 415.481C72.0743 414.71 71.7416 413.939 71.4135 413.168ZM544.589 413.091C544.915 412.334 545.236 411.573 545.553 410.811L547.86 411.776C547.539 412.546 547.213 413.312 546.887 414.078L544.589 413.091ZM69.1765 407.731L71.4979 406.806C71.8032 407.577 72.1175 408.352 72.4319 409.118L70.1195 410.066C69.8005 409.291 69.4862 408.511 69.1765 407.726L69.1765 407.731ZM546.815 407.742C547.123 406.976 547.431 406.206 547.734 405.43L550.065 406.34C549.761 407.12 549.449 407.899 549.137 408.675L546.815 407.742ZM67.0633 402.24L69.4073 401.37C69.6987 402.15 69.9902 402.929 70.2863 403.705L67.9512 404.602C67.6507 403.817 67.3547 403.033 67.0587 402.244L67.0633 402.24ZM548.919 402.333C549.209 401.558 549.498 400.782 549.783 400.002L552.132 400.857C551.843 401.646 551.553 402.431 551.259 403.211L548.919 402.329L548.919 402.333ZM65.0786 396.704L67.4405 395.889C67.7136 396.678 67.9867 397.462 68.269 398.242L65.9161 399.084C65.6339 398.29 65.3563 397.497 65.0786 396.704ZM550.9 396.882C551.175 396.102 551.442 395.317 551.709 394.532L554.076 395.337C553.805 396.131 553.534 396.92 553.258 397.709L550.9 396.882ZM63.2223 391.123L65.6021 390.359C65.8568 391.152 66.1162 391.945 66.3756 392.734L64.0002 393.521C63.7363 392.723 63.477 391.925 63.2178 391.123L63.2223 391.123ZM552.752 391.38C553.01 390.59 553.258 389.801 553.507 389.011L555.893 389.761C555.64 390.56 555.387 391.358 555.13 392.152L552.752 391.38ZM61.4899 385.497L63.8875 384.788C64.1239 385.586 64.3649 386.383 64.6059 387.181L62.2173 387.913C61.9718 387.111 61.7308 386.304 61.4899 385.497ZM554.482 385.84C554.721 385.045 554.956 384.251 555.186 383.453L557.587 384.148C557.352 384.951 557.117 385.754 556.878 386.557L554.482 385.84ZM59.8948 379.859L62.3102 379.205C62.5283 380.007 62.7465 380.804 62.9692 381.602L60.5627 382.279C60.3355 381.472 60.1128 380.666 59.8948 379.859ZM556.084 380.262C556.305 379.463 556.521 378.664 556.733 377.861L559.152 378.501C558.936 379.309 558.719 380.122 558.498 380.925L556.088 380.262L556.084 380.262ZM58.4326 374.181L60.8614 373.581C61.0566 374.388 61.261 375.19 61.4654 375.992L59.0455 376.614C58.8366 375.803 58.6323 374.992 58.4326 374.176L58.4326 374.181ZM557.558 374.651C557.76 373.848 557.958 373.044 558.152 372.236L560.581 372.822C560.387 373.634 560.185 374.447 559.982 375.26L557.558 374.651ZM57.0987 368.476L59.5407 367.936C59.7222 368.747 59.9036 369.553 60.0897 370.36L57.6566 370.927C57.466 370.112 57.28 369.296 57.0987 368.476ZM558.904 369.003C559.088 368.195 559.268 367.387 559.443 366.574L561.887 367.1C561.711 367.917 561.527 368.735 561.342 369.552L558.904 368.999L558.904 369.003ZM55.8931 362.74L58.3439 362.255C58.507 363.071 58.6701 363.881 58.8379 364.692L56.3915 365.2C56.2192 364.38 56.0562 363.56 55.8931 362.74ZM560.122 363.331C560.288 362.518 560.445 361.705 560.602 360.892L563.06 361.364C562.902 362.186 562.741 363.008 562.575 363.826L560.126 363.331L560.122 363.331ZM54.8203 356.982L57.2844 356.552C57.4292 357.372 57.574 358.187 57.7234 359.003L55.2637 359.455C55.1098 358.631 54.965 357.811 54.8203 356.982ZM561.208 357.631C561.356 356.813 561.494 356 561.633 355.182L564.1 355.599C563.961 356.426 563.818 357.253 563.67 358.075L561.208 357.636L561.208 357.631ZM53.8758 351.198L56.3486 350.823C56.4705 351.643 56.6016 352.462 56.7327 353.282L54.2643 353.675C54.1332 352.851 54.0023 352.022 53.8758 351.198ZM562.166 351.907C562.291 351.089 562.416 350.266 562.536 349.449L565.008 349.806C564.888 350.633 564.762 351.464 564.633 352.291L562.161 351.907L562.166 351.907ZM53.0687 345.392L55.5503 345.072C55.6538 345.896 55.7666 346.72 55.8793 347.54L53.4022 347.878C53.2895 347.049 53.1768 346.22 53.0732 345.392L53.0687 345.392ZM562.991 346.163C563.098 345.341 563.205 344.518 563.307 343.696L565.788 343.998C565.686 344.83 565.579 345.661 565.472 346.488L562.996 346.159L562.991 346.163ZM52.3897 339.573L54.8755 339.312C54.9608 340.136 55.0552 340.96 55.1496 341.785L52.6637 342.068C52.5693 341.239 52.4749 340.406 52.3897 339.573ZM563.688 340.4C563.777 339.578 563.866 338.75 563.945 337.928L566.431 338.175C566.347 339.007 566.263 339.843 566.17 340.675L563.684 340.405L563.688 340.4ZM51.8435 333.737L54.3335 333.531C54.4004 334.36 54.472 335.184 54.5481 336.012L52.058 336.24C51.9819 335.407 51.9105 334.574 51.839 333.737L51.8435 333.737ZM564.253 334.623C564.324 333.796 564.394 332.973 564.455 332.145L566.946 332.338C566.881 333.174 566.815 334.006 566.74 334.838L564.249 334.623L564.253 334.623ZM51.4301 327.892L53.9242 327.742C53.9728 328.57 54.0261 329.398 54.0839 330.227L51.5896 330.4C51.5318 329.567 51.4787 328.73 51.4255 327.897L51.4301 327.892ZM564.69 328.835C564.742 328.008 564.794 327.18 564.837 326.353L567.334 326.49C567.286 327.327 567.239 328.164 567.187 328.996L564.69 328.835ZM51.1448 322.04L53.643 321.944C53.6734 322.772 53.7083 323.605 53.7478 324.429L51.2495 324.543C51.21 323.71 51.1751 322.872 51.1448 322.035L51.1448 322.04ZM564.995 323.042C565.028 322.214 565.057 321.391 565.086 320.564L567.583 320.642C567.559 321.479 567.525 322.311 567.491 323.143L564.995 323.038L564.995 323.042ZM50.9968 316.179L53.4991 316.143C53.5112 316.971 53.5278 317.804 53.549 318.632L51.0511 318.691C51.0299 317.854 51.0134 317.016 51.0014 316.179L50.9968 316.179ZM565.171 317.253C565.186 316.425 565.197 315.597 565.208 314.764L567.71 314.783C567.703 315.625 567.688 316.462 567.673 317.299L565.171 317.253ZM50.9723 310.319L50.9748 309.986L53.4767 310.004L53.4742 310.338C53.4679 311.166 53.4617 311.999 53.4692 312.827L50.9671 312.831C50.9643 311.994 50.966 311.156 50.9723 310.319ZM565.201 308.96L567.699 308.928C567.711 309.765 567.714 310.603 567.717 311.44L565.214 311.448C565.212 310.616 565.204 309.788 565.197 308.96L565.201 308.96ZM51.0274 306.638C51.0474 305.801 51.0675 304.964 51.092 304.132L53.5935 304.21C53.569 305.038 53.5444 305.865 53.5291 306.693L51.0273 306.642L51.0274 306.638ZM565.062 303.159L567.56 303.072C567.59 303.91 567.616 304.747 567.637 305.584L565.139 305.648C565.118 304.82 565.092 303.991 565.066 303.163L565.062 303.159ZM51.2178 300.793C51.2561 299.957 51.2944 299.12 51.3418 298.283L53.8383 298.416C53.7955 299.244 53.7527 300.071 53.719 300.899L51.2224 300.789L51.2178 300.793ZM564.794 297.361L567.293 297.22C567.342 298.053 567.386 298.89 567.425 299.728L564.927 299.846C564.887 299.018 564.843 298.19 564.794 297.361ZM51.5408 294.945C51.5928 294.109 51.654 293.272 51.7197 292.44L54.2112 292.628C54.1501 293.456 54.089 294.278 54.037 295.106L51.5454 294.941L51.5408 294.945ZM564.399 291.567L566.889 291.371C566.956 292.204 567.018 293.042 567.076 293.875L564.581 294.048C564.524 293.22 564.461 292.391 564.394 291.567L564.399 291.567ZM51.9918 289.103C52.0667 288.266 52.1416 287.435 52.2256 286.603L54.7121 286.85C54.6281 287.673 54.5533 288.5 54.4785 289.323L51.9872 289.103L51.9918 289.103ZM563.871 285.791L566.356 285.535C566.442 286.368 566.522 287.201 566.603 288.034L564.113 288.267C564.037 287.443 563.956 286.615 563.871 285.791ZM52.5754 283.271C52.6686 282.439 52.7664 281.607 52.8687 280.775L55.3502 281.078C55.2525 281.9 55.1548 282.723 55.0617 283.55L52.5754 283.271ZM563.21 280.022L565.691 279.712C565.795 280.54 565.898 281.374 565.993 282.207L563.507 282.495C563.412 281.671 563.313 280.847 563.21 280.027L563.21 280.022ZM53.2916 277.453C53.4031 276.622 53.5191 275.795 53.6397 274.967L56.1161 275.325C55.9956 276.143 55.8843 276.965 55.7729 277.788L53.2962 277.453L53.2916 277.453ZM562.42 274.276L564.893 273.906C565.015 274.735 565.137 275.563 565.249 276.392L562.772 276.735C562.66 275.915 562.542 275.096 562.42 274.271L562.42 274.276ZM54.1403 271.655C54.27 270.828 54.4043 270.001 54.5432 269.174L57.0102 269.586C56.8713 270.404 56.7371 271.222 56.612 272.04L54.1403 271.65L54.1403 271.655ZM561.503 268.547L563.967 268.122C564.107 268.946 564.247 269.77 564.383 270.599L561.914 270.997C561.783 270.177 561.643 269.362 561.503 268.547ZM55.1215 265.876C55.2695 265.049 55.422 264.227 55.5792 263.405L58.0365 263.876C57.8794 264.689 57.727 265.502 57.579 266.32L55.1215 265.876ZM560.453 262.839L562.908 262.359C563.066 263.179 563.225 264.004 563.379 264.828L560.919 265.286C560.77 264.47 560.611 263.655 560.452 262.844L560.453 262.839ZM56.2305 260.126C56.3968 259.303 56.5722 258.486 56.7476 257.669L59.1908 258.195C59.0155 259.003 58.8447 259.816 58.6785 260.629L56.2305 260.126ZM559.274 257.154L561.716 256.619C561.898 257.434 562.07 258.255 562.242 259.075L559.795 259.587C559.623 258.776 559.451 257.965 559.274 257.154ZM57.472 254.394C57.6611 253.577 57.8503 252.764 58.044 251.947L60.4776 252.528C60.284 253.336 60.095 254.14 59.9105 254.952L57.472 254.394ZM557.963 251.5L560.391 250.909C560.591 251.721 560.782 252.536 560.972 253.352L558.539 253.919C558.353 253.113 558.158 252.306 557.963 251.5ZM58.846 248.701C59.0533 247.888 59.2607 247.08 59.4727 246.267L61.8876 246.903C61.6757 247.706 61.4684 248.505 61.2657 249.313L58.8414 248.701L58.846 248.701ZM556.527 245.876L558.943 245.231C559.161 246.038 559.374 246.849 559.579 247.66L557.159 248.282C556.95 247.48 556.741 246.678 556.527 245.876ZM60.3478 243.035C60.5688 242.227 60.799 241.42 61.0292 240.616L63.43 241.307C63.1999 242.101 62.9744 242.9 62.7534 243.698L60.3432 243.031L60.3478 243.035ZM554.959 240.289L557.357 239.584C557.593 240.386 557.825 241.193 558.052 242L555.646 242.677C555.419 241.879 555.191 241.082 554.959 240.289ZM61.9773 237.408C62.2167 236.604 62.4651 235.806 62.7135 235.007L65.1002 235.752C64.8519 236.542 64.608 237.336 64.3688 238.13L61.9728 237.408L61.9773 237.408ZM553.259 234.714L555.643 233.959C555.897 234.761 556.148 235.563 556.393 236.366L554.004 237.098C553.759 236.3 553.513 235.507 553.259 234.714ZM63.7393 231.813C63.9969 231.019 64.2636 230.221 64.5302 229.431L66.8982 230.231C66.6316 231.016 66.3695 231.801 66.112 232.59L63.7347 231.813L63.7393 231.813ZM551.429 229.183L553.796 228.373C554.069 229.167 554.337 229.965 554.601 230.762L552.23 231.55C551.966 230.761 551.702 229.972 551.429 229.183ZM65.6245 226.265C65.9048 225.476 66.1852 224.687 66.4702 223.897L68.8194 224.752C68.5345 225.532 68.2588 226.312 67.983 227.092L65.6245 226.26L65.6245 226.265ZM549.476 223.693L551.82 222.828C552.112 223.617 552.398 224.406 552.681 225.2L550.328 226.042C550.045 225.257 549.763 224.478 549.476 223.693ZM67.6373 220.764C67.9359 219.979 68.2346 219.199 68.5378 218.419L70.8683 219.329C70.5652 220.1 70.2712 220.875 69.9772 221.65L67.6372 220.768L67.6373 220.764ZM547.399 218.257L549.725 217.337C550.035 218.117 550.34 218.902 550.641 219.686L548.306 220.583C548.005 219.808 547.705 219.033 547.399 218.257ZM69.7733 215.305C70.0902 214.529 70.4071 213.754 70.7285 212.983L73.0358 213.943C72.719 214.709 72.4022 215.475 72.0899 216.246L69.7733 215.305ZM545.194 212.866L547.498 211.895C547.821 212.671 548.145 213.442 548.463 214.222L546.151 215.17C545.836 214.399 545.513 213.632 545.189 212.866L545.194 212.866ZM72.0324 209.91C72.3629 209.144 72.698 208.378 73.033 207.617L75.3171 208.631C74.9821 209.384 74.6516 210.14 74.3257 210.902L72.0278 209.91L72.0324 209.91ZM542.874 207.529L545.155 206.503C545.497 207.27 545.839 208.036 546.176 208.807L543.886 209.81C543.553 209.048 543.216 208.286 542.874 207.529ZM74.4053 204.581C74.7541 203.824 75.1074 203.068 75.4607 202.311L77.7215 203.375C77.3682 204.123 77.0195 204.87 76.6754 205.623L74.4007 204.581L74.4053 204.581ZM540.425 202.25L542.684 201.174C543.044 201.931 543.404 202.689 543.755 203.451L541.488 204.504C541.137 203.751 540.781 202.999 540.425 202.246L540.425 202.25ZM76.9013 199.303C77.2683 198.555 77.6353 197.803 78.0069 197.061L80.2444 198.175C79.8775 198.914 79.5105 199.656 79.1481 200.399L76.9013 199.303ZM537.862 197.026L540.093 195.899C540.472 196.647 540.846 197.4 541.22 198.153L538.979 199.257C538.61 198.513 538.24 197.769 537.866 197.026L537.862 197.026ZM79.5205 194.081C79.9011 193.338 80.2863 192.6 80.6761 191.862L82.8858 193.026C82.5007 193.755 82.1201 194.489 81.7395 195.227L79.5159 194.081L79.5205 194.081ZM535.179 191.864L537.384 190.687C537.78 191.426 538.173 192.17 538.561 192.914L536.343 194.068C535.959 193.329 535.571 192.599 535.179 191.864ZM82.2535 188.919C82.6524 188.185 83.0558 187.452 83.4639 186.723L85.6457 187.938C85.2423 188.657 84.8435 189.382 84.4539 190.106L82.2581 188.914L82.2535 188.919ZM532.381 186.77L534.559 185.542C534.97 186.273 535.38 187.003 535.782 187.743L533.591 188.947C533.189 188.222 532.783 187.496 532.377 186.77L532.381 186.77ZM85.1049 183.817C85.5221 183.093 85.9392 182.373 86.3654 181.654L88.5195 182.919C88.1024 183.634 87.6854 184.344 87.2729 185.064L85.1049 183.817ZM529.469 181.735L531.619 180.457C532.048 181.178 532.473 181.899 532.893 182.625L530.734 183.881C530.318 183.164 529.894 182.447 529.469 181.73L529.469 181.735ZM88.0703 178.78C88.5011 178.065 88.9364 177.355 89.3763 176.645L91.5025 177.96C91.0672 178.666 90.6366 179.367 90.2059 180.077L88.0657 178.785L88.0703 178.78ZM526.442 176.772L528.56 175.448C529.003 176.16 529.446 176.872 529.884 177.585L527.752 178.891C527.318 178.183 526.88 177.475 526.442 176.772ZM91.1495 173.813C91.5985 173.107 92.0475 172.406 92.5056 171.705L94.5995 173.066C94.1506 173.758 93.7016 174.454 93.2573 175.151L91.145 173.808L91.1495 173.813ZM523.304 171.882L525.395 170.511C525.857 171.21 526.313 171.913 526.766 172.617L524.665 173.969C524.217 173.27 523.761 172.576 523.308 171.882L523.304 171.882ZM94.3425 168.915C94.8052 168.219 95.2724 167.527 95.7441 166.84L97.8102 168.251C97.343 168.933 96.8804 169.62 96.4224 170.308L94.3425 168.92L94.3425 168.915ZM520.06 167.063L522.116 165.643C522.591 166.332 523.066 167.022 523.536 167.721L521.463 169.123C520.997 168.434 520.531 167.749 520.06 167.068L520.06 167.063ZM97.6494 164.087C98.1302 163.404 98.6111 162.722 99.0965 162.044L101.13 163.5C100.649 164.173 100.169 164.847 99.6924 165.525L97.6448 164.087L97.6494 164.087ZM516.702 162.318L518.726 160.851C519.219 161.527 519.704 162.212 520.192 162.893L518.155 164.341C517.675 163.665 517.191 162.989 516.707 162.318L516.702 162.318ZM101.061 159.337C101.555 158.664 102.054 157.995 102.553 157.327L104.555 158.828C104.056 159.492 103.566 160.156 103.071 160.821L101.056 159.337L101.061 159.337ZM513.243 157.653L515.235 156.141C515.742 156.808 516.244 157.479 516.747 158.151L514.742 159.645C514.248 158.978 513.75 158.316 513.247 157.658L513.243 157.653ZM104.582 154.661C105.09 153.997 105.607 153.338 106.124 152.683L108.089 154.23C107.576 154.881 107.068 155.535 106.564 156.19L104.582 154.666L104.582 154.661ZM509.677 153.071L511.633 151.512C512.154 152.17 512.675 152.828 513.187 153.486L511.218 155.022C510.706 154.368 510.194 153.715 509.677 153.066L509.677 153.071ZM108.207 150.069C108.733 149.419 109.259 148.768 109.79 148.123L111.722 149.711C111.196 150.352 110.675 150.993 110.153 151.639L108.207 150.069ZM506.011 148.565L507.93 146.965C508.465 147.609 509 148.254 509.53 148.903L507.593 150.484C507.067 149.84 506.541 149.2 506.011 148.565ZM111.932 145.555C112.472 144.918 113.017 144.282 113.561 143.646L115.456 145.279C114.916 145.906 114.377 146.538 113.841 147.17L111.932 145.555ZM502.247 144.15L504.13 142.508C504.679 143.139 505.228 143.775 505.772 144.41L503.871 146.038C503.331 145.407 502.791 144.781 502.243 144.155L502.247 144.15ZM115.767 141.128C116.32 140.501 116.878 139.879 117.437 139.256L119.295 140.931C118.741 141.544 118.188 142.162 117.639 142.784L115.767 141.128ZM498.383 139.817L500.23 138.134C500.792 138.751 501.355 139.373 501.912 139.999L500.052 141.668C499.499 141.051 498.945 140.434 498.383 139.821L498.383 139.817ZM119.696 136.785C120.264 136.172 120.835 135.558 121.412 134.95L123.229 136.665C122.661 137.269 122.094 137.873 121.532 138.482L119.696 136.785ZM494.421 135.574L496.232 133.85C496.808 134.453 497.385 135.061 497.956 135.674L496.132 137.385C495.565 136.781 494.998 136.178 494.421 135.579L494.421 135.574ZM123.722 132.534C124.303 131.934 124.888 131.335 125.478 130.74L127.258 132.496C126.677 133.087 126.096 133.677 125.52 134.272L123.722 132.534ZM490.368 131.422L492.138 129.656C492.728 130.251 493.318 130.845 493.903 131.44L492.116 133.187C491.534 132.598 490.953 132.008 490.368 131.418L490.368 131.422ZM127.842 128.37C128.437 127.785 129.036 127.199 129.639 126.614L131.378 128.411C130.783 128.987 130.189 129.568 129.599 130.149L127.842 128.37ZM486.222 127.366L487.951 125.558C488.555 126.139 489.159 126.72 489.758 127.301L488.011 129.09C487.417 128.509 486.822 127.938 486.222 127.361L486.222 127.366ZM132.058 124.303C132.666 123.727 133.279 123.155 133.892 122.588L135.589 124.422C134.981 124.984 134.373 125.551 133.774 126.119L132.058 124.299L132.058 124.303ZM481.989 123.405L483.677 121.56C484.295 122.123 484.908 122.695 485.521 123.262L483.815 125.093C483.211 124.526 482.602 123.967 481.989 123.405ZM136.365 120.329C136.987 119.766 137.613 119.208 138.239 118.655L139.895 120.529C139.273 121.078 138.656 121.631 138.039 122.185L136.365 120.329ZM477.663 119.539L479.31 117.658C479.942 118.207 480.569 118.76 481.192 119.319L479.526 121.186C478.908 120.637 478.286 120.088 477.663 119.544L477.663 119.539ZM140.762 116.456C141.398 115.912 142.033 115.367 142.673 114.828L144.287 116.738C143.652 117.273 143.021 117.813 142.395 118.352L140.762 116.456ZM473.255 115.769L474.856 113.851C475.497 114.386 476.138 114.926 476.775 115.466L475.155 117.37C474.523 116.835 473.891 116.3 473.255 115.769ZM145.246 112.679C145.895 112.144 146.544 111.619 147.193 111.093L148.765 113.039C148.121 113.561 147.477 114.082 146.837 114.612L145.246 112.684L145.246 112.679ZM468.763 112.108L470.324 110.153C470.978 110.674 471.629 111.196 472.279 111.727L470.7 113.668C470.059 113.147 469.413 112.625 468.763 112.108ZM149.816 109.004C150.474 108.487 151.136 107.971 151.799 107.459L153.326 109.437C152.668 109.945 152.014 110.452 151.361 110.964L149.816 108.999L149.816 109.004ZM464.193 108.542L465.708 106.55C466.372 107.058 467.036 107.566 467.696 108.079L466.162 110.053C465.507 109.545 464.852 109.041 464.193 108.538L464.193 108.542ZM154.467 105.434C155.139 104.932 155.81 104.434 156.487 103.936L157.967 105.95C157.3 106.444 156.633 106.937 155.966 107.435L154.467 105.434ZM459.544 105.086L461.014 103.061C461.692 103.551 462.365 104.046 463.034 104.545L461.545 106.551C460.881 106.056 460.213 105.566 459.544 105.081L459.544 105.086ZM159.2 101.966C159.881 101.477 160.566 100.993 161.251 100.513L162.686 102.56C162.005 103.035 161.329 103.515 160.653 103.999L159.2 101.966ZM454.817 101.734L456.236 99.677C456.923 100.153 457.611 100.63 458.293 101.115L456.851 103.158C456.177 102.682 455.499 102.206 454.817 101.734ZM164.01 98.6083C164.704 98.1378 165.398 97.6674 166.093 97.2014L167.481 99.2794C166.792 99.7408 166.102 100.207 165.417 100.673L164.01 98.6083ZM450.02 98.4913L451.399 96.4067C452.095 96.8647 452.791 97.332 453.483 97.7946L452.086 99.8699C451.399 99.4073 450.712 98.9493 450.02 98.4913ZM168.897 95.3608C169.6 94.9041 170.308 94.452 171.011 93.9999L172.349 96.1095C171.646 96.5525 170.952 97.0047 170.253 97.4523L168.892 95.3562L168.897 95.3608ZM445.149 95.3579L446.478 93.2409C447.183 93.6853 447.889 94.1343 448.595 94.5833L447.248 96.6865C446.551 96.2421 445.855 95.7978 445.154 95.3579L445.149 95.3579ZM173.856 92.2191C174.568 91.7808 175.285 91.3425 176.002 90.9088L177.294 93.05C176.582 93.4792 175.874 93.913 175.166 94.3468L173.856 92.2191ZM440.209 92.3384L441.487 90.189C442.207 90.6152 442.922 91.046 443.632 91.4813L442.331 93.6168C441.625 93.1861 440.919 92.76 440.204 92.3338L440.209 92.3384ZM178.887 89.1968C179.613 88.7723 180.335 88.3524 181.065 87.937L182.307 90.1054C181.585 90.5208 180.869 90.9362 180.147 91.3562L178.883 89.1968L178.887 89.1968ZM435.208 89.4282L436.441 87.251C437.17 87.6636 437.894 88.0761 438.614 88.4978L437.363 90.6611C436.647 90.2486 435.928 89.8361 435.208 89.4282ZM183.982 86.2848C184.717 85.8787 185.452 85.4725 186.187 85.0755L187.378 87.271C186.647 87.668 185.917 88.0696 185.191 88.4712L183.977 86.2848L183.982 86.2848ZM430.138 86.6364L431.321 84.4314C432.059 84.8258 432.793 85.2246 433.522 85.6281L432.316 87.8192C431.591 87.4203 430.867 87.0261 430.138 86.6364ZM189.149 83.4923C189.893 83.1 190.637 82.7122 191.381 82.329L192.526 84.5515C191.787 84.9301 191.047 85.3134 190.312 85.7012L189.149 83.4877L189.149 83.4923ZM425.012 83.9585L426.145 81.7303C426.888 82.1064 427.631 82.487 428.373 82.8723L427.222 85.0912C426.489 84.7106 425.755 84.33 425.017 83.9586L425.012 83.9585ZM194.379 80.8146C195.128 80.4406 195.885 80.0712 196.638 79.7018L197.733 81.9513C196.984 82.3162 196.24 82.6811 195.497 83.0506L194.384 80.8146L194.379 80.8146ZM419.826 81.3992L420.909 79.1431C421.661 79.5055 422.413 79.868 423.16 80.2349L422.059 82.4771C421.317 82.1148 420.574 81.7524 419.831 81.3946L419.826 81.3992ZM199.668 78.2563C200.425 77.9006 201.187 77.545 201.954 77.1985L202.993 79.4706C202.236 79.8171 201.483 80.1682 200.73 80.5193L199.668 78.2563ZM414.584 78.9628L415.612 76.6835C416.374 77.0277 417.13 77.3719 417.887 77.7252L416.836 79.9953C416.089 79.6466 415.336 79.3024 414.584 78.9628ZM205.015 75.8173C205.782 75.4754 206.552 75.1427 207.323 74.81L208.312 77.1046C207.546 77.4327 206.784 77.7655 206.027 78.1028L205.015 75.8173ZM409.291 76.6405L410.269 74.3379C411.035 74.6639 411.801 74.9944 412.567 75.3249L411.566 77.6182C410.809 77.2878 410.053 76.9619 409.291 76.6405ZM210.416 73.5022C211.192 73.1787 211.967 72.8644 212.747 72.55L213.681 74.867C212.91 75.1768 212.139 75.4912 211.373 75.8102L210.416 73.5022ZM403.938 74.4412L404.861 72.1199C405.641 72.4277 406.416 72.7446 407.191 73.0614L406.245 75.3734C405.479 75.0612 404.708 74.7489 403.938 74.4412ZM215.876 71.3111C216.656 71.0059 217.445 70.7054 218.229 70.4094L219.113 72.7489C218.333 73.0449 217.558 73.3409 216.782 73.6416L215.881 71.3111L215.876 71.3111ZM398.519 72.3558L399.392 70.0113C400.177 70.3054 400.961 70.5994 401.741 70.898L400.845 73.2333C400.07 72.9347 399.295 72.6452 398.519 72.3558ZM221.381 69.2484C222.169 68.9616 222.963 68.6794 223.756 68.4018L224.585 70.7591C223.796 71.0368 223.016 71.3145 222.232 71.5968L221.381 69.2438L221.381 69.2484ZM393.059 70.3936L393.877 68.0303C394.666 68.3061 395.46 68.582 396.245 68.8623L395.404 71.2163C394.624 70.936 393.843 70.6602 393.059 70.389L393.059 70.3936ZM226.934 67.3096C227.732 67.0411 228.53 66.7772 229.328 66.5179L230.102 68.8932C229.308 69.1525 228.52 69.4119 227.731 69.6758L226.934 67.305L226.934 67.3096ZM387.551 68.5637L388.315 66.1817C389.113 66.4393 389.907 66.6968 390.701 66.959L389.915 69.3316C389.13 69.0695 388.341 68.8166 387.551 68.5637ZM232.533 65.4946C233.336 65.2445 234.138 64.9989 234.945 64.758L235.663 67.1511C234.865 67.3921 234.068 67.6331 233.274 67.8833L232.533 65.4946ZM382.007 66.8524L382.715 64.4563C383.519 64.6956 384.322 64.9349 385.121 65.1788L384.389 67.5701C383.595 67.3263 382.801 67.087 382.007 66.8524ZM238.158 63.817C238.96 63.5852 239.767 63.3625 240.578 63.1399L241.242 65.5509C240.444 65.7691 239.642 65.9963 238.849 66.2236L238.163 63.8216L238.158 63.817ZM376.42 65.2734L377.074 62.8586C377.882 63.0797 378.69 63.3007 379.493 63.5263L378.816 65.9318C378.018 65.7063 377.219 65.4853 376.42 65.2688L376.42 65.2734ZM243.81 62.2677C244.621 62.0542 245.432 61.85 246.243 61.6456L246.852 64.0699C246.045 64.2697 245.243 64.4787 244.441 64.6876L243.81 62.2677ZM370.8 63.8177L371.399 61.3888C372.212 61.5916 373.024 61.7944 373.833 62.0017L373.211 64.4213C372.407 64.214 371.604 64.0113 370.8 63.8132L370.8 63.8177ZM249.497 60.8513C250.313 60.6562 251.128 60.4702 251.944 60.2843L252.497 62.7219C251.691 62.9034 250.88 63.0939 250.073 63.2846L249.497 60.8513ZM365.152 62.4945L365.696 60.056C366.513 60.2359 367.331 60.425 368.144 60.6141L367.576 63.0479C366.768 62.8588 365.96 62.6743 365.152 62.4945ZM255.215 59.5633C256.035 59.3865 256.855 59.2188 257.676 59.0512L258.174 61.5021C257.363 61.6653 256.548 61.8375 255.741 62.0098L255.22 59.5633L255.215 59.5633ZM359.475 61.2991L359.96 58.8464C360.782 59.0081 361.6 59.1789 362.422 59.3498L361.909 61.7977C361.096 61.6269 360.288 61.4607 359.47 61.299L359.475 61.2991ZM260.96 58.4081C261.78 58.2496 262.604 58.1003 263.429 57.9509L263.872 60.4106C263.057 60.5554 262.242 60.7094 261.426 60.8633L260.96 58.4081ZM353.77 60.2315L354.2 57.7693C355.027 57.9127 355.849 58.0607 356.671 58.2133L356.218 60.6708C355.405 60.5183 354.588 60.3749 353.77 60.2315ZM266.731 57.3811C267.556 57.2455 268.384 57.11 269.209 56.9835L269.593 59.4519C268.773 59.5784 267.953 59.7094 267.138 59.8451L266.727 57.3765L266.731 57.3811ZM348.041 59.2965L348.416 56.8247C349.243 56.9498 350.07 57.0795 350.897 57.2138L350.499 59.6809C349.681 59.5512 348.863 59.4216 348.041 59.2965ZM272.524 56.487C273.353 56.3697 274.182 56.2525 275.011 56.1444L275.34 58.6214C274.515 58.7296 273.696 58.8424 272.876 58.9597L272.524 56.4824L272.524 56.487ZM342.293 58.4939L342.613 56.0125C343.445 56.1194 344.272 56.2309 345.104 56.3469L344.76 58.8235C343.938 58.7121 343.12 58.6008 342.293 58.4939ZM278.335 55.7257C279.163 55.6267 279.996 55.5323 280.83 55.438L281.104 57.9238C280.28 58.0137 279.456 58.1081 278.632 58.2071L278.335 55.7257ZM336.53 57.8193L336.791 55.3329C337.623 55.4215 338.454 55.5147 339.286 55.6079L338.998 58.0895C338.175 57.9964 337.352 57.9033 336.525 57.8147L336.53 57.8193ZM284.158 55.0971C284.991 55.0164 285.824 54.9404 286.657 54.8689L286.876 57.3588C286.047 57.4304 285.224 57.5065 284.4 57.5872L284.158 55.0971ZM330.752 57.2727L330.958 54.7813C331.795 54.8517 332.627 54.922 333.459 55.0014L333.23 57.4926C332.407 57.4178 331.579 57.343 330.752 57.2773L330.752 57.2727ZM289.998 54.5967C290.831 54.5343 291.669 54.4766 292.501 54.4234L292.661 56.9175C291.833 56.9707 291.004 57.0286 290.181 57.091L289.998 54.5967ZM324.964 56.8586L325.116 54.3623C325.952 54.4143 326.789 54.4664 327.621 54.5275L327.447 57.0237C326.619 56.9672 325.792 56.9106 324.964 56.8632L324.964 56.8586ZM295.847 54.2336C296.684 54.1896 297.517 54.1501 298.354 54.1152L298.459 56.6135C297.631 56.6484 296.802 56.688 295.974 56.7275L295.847 54.229L295.847 54.2336ZM319.176 56.5727L319.272 54.0759C320.104 54.1096 320.941 54.1434 321.773 54.1816L321.654 56.6782C320.831 56.64 320.003 56.6018 319.176 56.5727ZM301.703 53.9986C302.541 53.9729 303.378 53.9563 304.215 53.9398L304.265 56.4376C303.437 56.4543 302.609 56.4755 301.781 56.4967L301.708 53.9987L301.703 53.9986ZM313.381 56.4193L313.423 53.9175C314.26 53.933 315.097 53.9484 315.934 53.9685L315.869 56.4654C315.041 56.4455 314.214 56.4301 313.381 56.4147L313.381 56.4193ZM307.559 53.8917C308.396 53.8843 309.233 53.886 310.07 53.8877L310.061 56.3897C309.233 56.3835 308.4 56.3864 307.572 56.3939L307.554 53.8917L307.559 53.8917Z" fill="white"/>
</g>
<path d="M361.783 375.469L357.42 375.436C356.99 373.557 355.313 372.141 353.309 372.126L339.409 372.021C334.543 368.316 325.813 365.551 315.418 364.636L316.204 260.214C317.755 258.926 318.939 257.202 319.562 255.23L356.016 255.505C356.116 255.675 356.215 255.845 356.328 256.006L330.013 313.158L337.135 313.212L362.028 259.054L386.098 313.58L393.22 313.634L367.664 255.899C368.363 254.838 368.779 253.57 368.79 252.207C368.818 248.438 365.786 245.359 362.017 245.331C359.592 245.313 357.456 246.568 356.23 248.467L319.341 248.189C318.237 245.345 315.949 243.091 313.075 242.035C313.113 241.834 313.133 241.629 313.134 241.418C313.15 239.41 311.533 237.77 309.526 237.755C307.518 237.74 305.877 239.356 305.862 241.364C305.86 241.574 305.882 241.78 305.912 241.982C303.023 242.989 300.701 245.208 299.554 248.04L263.85 247.772C262.653 245.855 260.54 244.568 258.111 244.549C254.342 244.521 251.264 247.553 251.235 251.322C251.224 252.841 251.717 254.244 252.55 255.385L226.295 312.378L233.417 312.432L258.305 258.273L282.385 312.8L289.507 312.854L263.874 254.939C263.902 254.899 263.93 254.853 263.953 254.812L299.222 255.077C299.851 257.186 301.123 259.021 302.805 260.36L302.022 364.512C291.482 365.238 282.584 367.888 277.616 371.556L264.873 371.46C262.87 371.445 261.171 372.837 260.713 374.709L256.345 374.676C254.004 374.658 252.077 376.56 252.06 378.897L252.056 379.428C252.038 381.77 253.94 383.696 256.277 383.714L361.72 384.507C364.062 384.525 365.988 382.623 366.005 380.285L366.009 379.755C366.027 377.413 364.125 375.487 361.788 375.469L361.783 375.469Z" fill="#3D3C3C" fill-opacity="0.69"/>
<path d="M289.819 321.503L291.571 321.517C292.577 321.524 293.411 320.707 293.419 319.696C293.426 318.69 292.609 317.856 291.598 317.848L223.516 317.336C222.509 317.328 221.675 318.146 221.668 319.156C221.66 320.163 222.477 320.997 223.488 321.004L225.835 321.022C226.633 337.756 238.861 353.382 257.582 353.522C276.303 353.663 288.797 338.223 289.819 321.503Z" fill="#323232" fill-opacity="0.66"/>
<path d="M396.505 318.639L328.422 318.127C327.416 318.12 326.582 318.937 326.574 319.947C326.566 320.954 327.384 321.788 328.394 321.795L330.444 321.811C331.242 338.545 343.461 354.17 362.191 354.311C380.921 354.452 393.406 339.012 394.428 322.292L396.477 322.308C397.483 322.315 398.317 321.498 398.325 320.487C398.332 319.481 397.515 318.647 396.505 318.639Z" fill="#323232" fill-opacity="0.66"/>
<path d="M564.476 334.121C579.327 319.492 579.506 295.594 564.877 280.743C550.248 265.892 526.35 265.712 511.499 280.341C496.649 294.97 496.469 318.869 511.098 333.719C525.727 348.57 549.625 348.75 564.476 334.121Z" fill="#D3D3D3" fill-opacity="0.56"/>
<path d="M470.897 186.576C491.743 186.732 508.768 169.961 508.925 149.116C509.082 128.27 492.311 111.244 471.465 111.088C450.62 110.931 433.594 127.702 433.437 148.548C433.281 169.393 450.052 186.419 470.897 186.576Z" fill="#D3D3D3" fill-opacity="0.56"/>
<path style="mix-blend-mode:hard-light" fill-rule="evenodd" clip-rule="evenodd" d="M503.543 159.203C503.489 157.09 501.819 156.87 501.819 156.87L494.348 153.224L493.422 151.74L492.619 151.596L492.624 150.961L493.163 150.611L493.507 149.559L493.78 148.926L493.921 148.012L494.259 147.803L494.667 146.959L494.804 146.537L494.945 145.696L495.163 143.585C495.163 143.585 494.83 143.721 494.832 143.44C494.834 143.159 495.113 141.684 495.127 139.853C495.141 138.021 494.28 137.03 494.28 137.03C494.28 137.03 493.955 135.973 491.217 134.756C488.479 133.539 486.325 135.069 486.325 135.069L485.919 135.632L485.184 135.765L484.238 136.885L484.077 140.543L484.192 142.937L484.123 143.502L484.762 147.589L485.093 147.872L485.543 149.988L486.339 151.052L486.335 151.544L485.466 151.676L484.446 153.426C484.446 153.426 482.093 154.402 479.875 155.305L478.584 154.674L477.401 152.782L476.379 152.597L476.385 151.789L477.071 151.345L477.509 150.005L477.856 149.2L478.033 148.035L478.463 147.77L478.981 146.699L479.157 146.16L479.334 145.086L479.609 142.397C479.609 142.397 479.18 142.571 479.183 142.212C479.186 141.854 479.541 139.973 479.559 137.64C479.576 135.308 478.475 134.043 478.475 134.043C478.475 134.043 478.058 132.696 474.571 131.145C471.084 129.59 468.335 131.543 468.335 131.543L467.82 132.256L466.881 132.426L465.674 133.856L465.47 138.519L465.616 141.57L465.524 142.286L466.34 147.493L466.765 147.855L467.341 150.55L468.359 151.906L468.354 152.532L467.243 152.701L465.943 154.933C465.943 154.933 465.57 155.086 464.968 155.336L460.079 152.949L459.153 151.465L458.35 151.321L458.355 150.686L458.893 150.336L459.238 149.284L459.511 148.651L459.651 147.737L459.99 147.528L460.398 146.684L460.535 146.262L460.675 145.42L460.894 143.31C460.894 143.31 460.561 143.446 460.563 143.165C460.565 142.884 460.844 141.409 460.858 139.577C460.871 137.746 460.011 136.755 460.011 136.755C460.011 136.755 459.686 135.698 456.948 134.481C454.21 133.264 452.056 134.794 452.056 134.794L451.65 135.357L450.914 135.49L449.969 136.61L449.807 140.268L449.923 142.661L449.854 143.227L450.493 147.314L450.823 147.597L451.274 149.712L452.069 150.777L452.066 151.269L451.196 151.401L450.177 153.151C450.177 153.151 445.679 155.018 443.262 155.985C440.844 156.951 441.102 158.219 441.102 158.219L440.939 162.088L452.247 162.203L455.158 155.975L453.837 154.634L455.178 153.314L456.498 154.654L455.158 155.975L455.192 155.975L456.48 158.836C454.112 160.014 454.383 161.39 454.383 161.39L454.177 166.321L468.595 166.464L472.309 158.527L470.628 156.821L472.334 155.141L474.015 156.847L472.309 158.527L472.352 158.527L475.955 166.541L490.281 166.684C490.281 166.684 490.381 164.978 490.314 162.291C490.248 159.599 488.117 159.316 488.117 159.316L488.018 159.267L489.436 156.237L488.115 154.897L489.456 153.576L490.776 154.917L489.436 156.237L489.47 156.237L492.295 162.522L503.53 162.632C503.53 162.632 503.605 161.294 503.556 159.185L503.543 159.203Z" fill="#212121" fill-opacity="0.75"/>
<path d="M148.341 178.006C168.973 178.162 185.827 161.389 185.983 140.543C186.14 119.698 169.541 102.674 148.909 102.518C128.276 102.363 111.423 119.136 111.266 139.981C111.109 160.827 127.708 177.851 148.341 178.006Z" fill="#D3D3D3" fill-opacity="0.56"/>
<path d="M107.519 331.037C122.37 316.408 122.55 292.51 107.921 277.659C93.292 262.809 69.3938 262.629 54.543 277.258C39.6922 291.887 39.5124 315.785 54.1414 330.636C68.7705 345.487 92.6686 345.666 107.519 331.037Z" fill="#D3D3D3" fill-opacity="0.56"/>
<g style="mix-blend-mode:hard-light">
<path fill-rule="evenodd" clip-rule="evenodd" d="M532.585 293.15L542.806 299.152C543.611 299.625 544.652 299.354 545.122 298.548C545.595 297.742 545.324 296.705 544.521 296.232L534.3 290.23C533.495 289.756 532.457 290.025 531.984 290.83C531.511 291.639 531.779 292.673 532.585 293.15ZM523.154 309.207L533.375 315.213C534.178 315.686 535.218 315.418 535.688 314.609C536.162 313.806 535.894 312.766 535.088 312.293L524.87 306.291C524.064 305.817 523.027 306.089 522.554 306.891C522.08 307.697 522.348 308.737 523.154 309.207ZM558.479 314.253L539.806 304.264L541.951 300.613L531.73 294.611L525.728 304.829L535.946 310.831L538.09 307.184L555.908 318.632C557.117 319.34 558.673 318.938 559.384 317.729C560.096 316.521 559.691 314.965 558.482 314.257L558.479 314.253ZM539.844 320.967C539.851 320.032 539.097 319.271 538.163 319.264L522.929 319.149C521.991 319.142 521.229 319.892 521.222 320.827L521.197 324.214L519.447 324.163L519.49 325.892L541.499 326.058L541.59 324.437L539.925 324.352C539.925 324.352 539.837 321.898 539.844 320.964L539.844 320.967Z" fill="#212121" fill-opacity="0.75"/>
</g>
<path d="M339.236 92.965C354.087 78.336 354.267 54.4379 339.638 39.5871C325.009 24.7363 301.11 24.5565 286.26 39.1855C271.409 53.8145 271.229 77.7127 285.858 92.5635C300.487 107.414 324.385 107.594 339.236 92.965Z" fill="#D3D3D3" fill-opacity="0.56"/>
<path style="mix-blend-mode:hard-light" fill-rule="evenodd" clip-rule="evenodd" d="M302.636 83.3981C302.949 82.344 304.03 80.8031 305.141 80.1142C305.972 79.6027 306.84 79.6718 307.364 80.4357C308.008 81.3758 305.734 85.1374 304.646 85.409C303.635 85.5058 302.255 84.6603 302.632 83.398L302.636 83.3981ZM342.947 70.9706L338.041 52.0945L330.19 53.9102L335.096 72.7863L342.947 70.9706ZM281.706 70.5099L286.896 51.7097L294.718 53.6433L289.529 72.4435L281.706 70.5099ZM310.324 87.2012C309.117 87.1504 309.692 85.6432 309.835 85.0055C310.021 84.1551 309.727 82.7332 308.628 83.4097C307.764 83.9418 306.802 85.8469 306.84 86.8577C306.895 88.4113 309.396 87.8873 310.324 87.2012ZM321.708 84.0718C320.091 83.663 315.132 79.609 314.207 78.2951C313.104 76.7378 313.597 76.0901 315.146 77.2876C316.711 78.4935 319.364 81.5448 321.587 82.5135C323.88 83.5036 326.523 83.4775 326.559 80.3922L325.494 79.8581C322.987 78.3528 318.729 74.9262 317.317 71.7047C316.447 69.7149 317.527 69.2679 318.598 71.2384C319.772 73.3975 322.216 75.4744 323.854 76.8729C324.726 77.6143 326.248 78.9744 327.334 79.4127C329.006 79.2582 330.314 78.5332 330.244 76.683C330.245 76.5452 322.941 69.484 322.266 68.8192C318.245 68.8474 313.986 64.9072 313.331 61.0276L311.052 61.3946C310.388 64.1996 307.68 67.3149 304.734 67.5892C299.841 67.615 302.528 62.2616 302.844 59.6168C303.018 58.1317 302.96 55.9266 303.954 54.7399C304.241 54.3997 304.673 54.1023 305.138 53.847L297.091 55.1685L292.309 72.4978L293.6 73.4637C295.081 72.0427 296.804 71.0953 298.642 72.5872C299.626 73.3796 300.132 74.373 300.039 75.6165C302.005 75.2263 304.203 76.0278 304.78 78.1115C307.432 76.9164 309.668 78.8873 309.267 81.6943C311.448 82.0531 311.792 84.636 311.391 85.6978C312.4 85.9684 315.298 87.5434 316.265 86.6906C315.191 86.2733 313.964 85.0198 312.716 83.8914C311.704 82.9778 312.422 82.432 313.335 83.2155C314.252 84.0074 315.256 84.7832 316.268 85.1749C318.225 85.937 320.334 85.8235 321.717 84.0719L321.708 84.0718ZM303.536 64.8412C303.44 64.2392 303.693 63.4186 303.855 62.9313C304.334 61.4777 304.535 60.2224 304.646 58.766C304.702 58.0525 304.803 57.3518 304.987 56.7268C305.579 55.1989 306.241 55.4586 307.586 54.7923C309.3 53.9451 311.045 52.9687 312.528 52.2992C314.359 51.4696 324.494 54.5103 327.724 55.3071L332.257 72.7399C331.756 73.2789 331.335 73.7142 330.481 74.0585C329.621 73.4466 326.073 69.9877 324.81 68.6045L326.565 67.9413C327.574 67.5606 327.017 66.6879 326.486 66.7382C323.352 67.032 321.19 67.45 318.537 65.5135C316.44 63.9863 314.978 61.8959 314.881 59.2397L314.86 58.68C312.936 59.1123 311.512 59.611 309.632 59.3171C309.544 61.4918 307.348 65.446 304.999 65.6622C304.377 65.7201 303.651 65.5644 303.536 64.837L303.536 64.8412ZM295.682 74.2894C296.814 73.6131 297.919 74.373 298.29 75.6117C298.587 76.6077 296.635 78.6306 295.674 78.7194C295.122 78.7695 294.504 78.2221 294.17 77.6308C293.375 76.2303 294.453 75.0359 295.682 74.2894ZM302.516 79.9942C303.727 76.5503 299.338 77.2605 297.872 79.4749C296.521 81.5191 299.41 83.7412 301.05 82.2922C301.647 81.7622 302.217 80.8438 302.516 79.9942Z" fill="#212121" fill-opacity="0.75"/>
<path d="M170.014 126.046L169.793 155.353C161.617 150.72 153.693 152.802 150.721 153.879L148.179 154.45L145.663 153.841C142.728 152.715 134.894 150.519 126.71 155.029L126.931 125.722L125.29 126.072L125.044 158.705C125.044 158.705 135.916 152.689 146.369 154.896L147.174 155.981L149.169 155.996L149.995 154.923C160.553 152.874 171.416 159.054 171.416 159.054L171.661 126.421L170.014 126.046Z" fill="#3A3838" fill-opacity="0.55"/>
<path d="M148.296 127.809C141.161 120.789 127.983 123.863 127.983 123.863L127.766 152.73C127.766 152.73 137.022 147.227 148.107 152.883C157.796 147.869 168.706 153.038 168.706 153.038L168.923 124.171C168.923 124.171 156.202 120.657 148.296 127.809ZM143.351 144.252L131.664 144.164L131.669 143.503L143.356 143.591L143.351 144.252ZM143.372 141.405L131.686 141.317L131.691 140.652L143.377 140.74L143.372 141.405ZM143.393 138.558L131.707 138.47L131.712 137.805L143.398 137.893L143.393 138.558ZM143.415 135.711L131.729 135.623L131.734 134.958L143.42 135.046L143.415 135.711ZM143.436 132.864L131.75 132.776L131.755 132.111L143.441 132.199L143.436 132.864ZM143.458 130.017L131.772 129.929L131.777 129.264L143.463 129.352L143.458 130.017ZM149.116 152.18C148.78 152.325 148.445 152.477 148.109 152.646C147.82 152.505 147.54 152.373 147.255 152.244L147.441 127.558C147.733 127.793 148.021 128.036 148.292 128.299C148.621 128.008 148.957 127.745 149.302 127.495L149.116 152.18ZM164.769 144.47L153.078 144.382L153.083 143.717L164.774 143.805L164.769 144.47ZM164.79 141.623L153.1 141.535L153.105 140.87L164.795 140.958L164.79 141.623ZM164.812 138.776L153.121 138.688L153.126 138.023L164.817 138.111L164.812 138.776ZM164.833 135.925L153.143 135.837L153.148 135.172L164.838 135.26L164.833 135.925ZM164.854 133.078L153.164 132.99L153.169 132.325L164.859 132.413L164.854 133.078ZM164.876 130.231L153.186 130.143L153.191 129.482L164.881 129.57L164.876 130.231Z" fill="#4B5563" fill-opacity="0.75"/>
<path style="mix-blend-mode:hard-light" fill-rule="evenodd" clip-rule="evenodd" d="M60.8178 322.088L96.9665 322.36L96.9765 321.035L60.8277 320.763L60.8178 322.088ZM61.5502 300.406L96.5537 300.669C97.4022 300.306 97.3682 299.514 96.5831 298.982C95.798 298.45 79.1297 286.225 79.1297 286.225C79.1297 286.225 62.4125 298.199 61.5629 298.718C60.7166 299.238 60.6574 300.03 61.5502 300.406ZM79.0848 292.198C80.4831 292.208 81.6098 293.352 81.5993 294.747C81.5888 296.142 80.445 297.272 79.0467 297.262C77.6484 297.251 76.525 296.107 76.5355 294.709C76.546 293.311 77.6898 292.187 79.0848 292.198ZM62.2844 319.206L95.5434 319.456L95.5541 318.042L62.2951 317.791L62.2844 319.206ZM63.7028 314.779L63.6909 316.354L70.922 316.408L70.9338 314.833L69.5189 314.823L69.6043 303.477L71.0192 303.487L71.0312 301.892L63.8001 301.838L63.7892 303.29L65.2041 303.3L65.1177 314.789L63.7028 314.779ZM75.2885 314.866L75.2767 316.441L82.5044 316.495L82.5163 314.92L81.1446 314.91L81.2306 303.477L82.6455 303.488L82.6562 302.073L75.4284 302.019L75.4182 303.38L76.8331 303.391L76.7467 314.88L75.2885 314.869L75.2885 314.866ZM86.7843 314.952L86.7725 316.527L94.0036 316.582L94.0154 315.007L92.6871 314.997L92.7731 303.564L94.188 303.575L94.1987 302.16L86.9675 302.106L86.9573 303.467L88.3722 303.478L88.2858 314.967L86.7843 314.956L86.7843 314.952Z" fill="#212121" fill-opacity="0.75"/>
</svg>
